<svg xmlns="http://www.w3.org/2000/svg" viewBox="0 0 77 37" fill-rule="evenodd" clip-rule="evenodd" stroke-linejoin="round" stroke-miterlimit="1.414">
  <path d="M18.423 36.25C8.663 36.25.75 28.337.75 18.577.75 8.814 8.663.9 18.423.9c9.763 0 17.675 7.914 17.675 17.677 0 9.76-7.912 17.673-17.675 17.673zm0-36.1C8.25.15 0 8.4 0 18.578 0 28.752 8.25 37 18.423 37c10.177 0 18.425-8.248 18.425-18.423C36.848 8.4 28.6.15 18.423.15z"/>
  <path d="M18.388 31.633c-7.195 0-13.048-5.852-13.048-13.047 0-7.196 5.853-13.05 13.048-13.05s13.05 5.854 13.05 13.05c0 7.195-5.855 13.047-13.05 13.047zm.035-28.482C9.905 3.15 3 10.06 3 18.58 3 27.094 9.904 34 18.422 34c8.52 0 15.425-6.906 15.425-15.423 0-8.52-6.904-15.426-15.425-15.426z"/>
  <path d="M18.388 30.23c-6.43 0-11.643-5.215-11.643-11.644 0-6.432 5.213-11.644 11.643-11.644 6.43 0 11.645 5.212 11.645 11.644 0 6.43-5.214 11.643-11.645 11.643zm0-24.194c-6.92 0-12.55 5.63-12.55 12.55 0 6.92 5.63 12.548 12.55 12.548 6.92 0 12.55-5.63 12.55-12.548 0-6.92-5.63-12.55-12.55-12.55z"/>
  <path d="M34.886 20.302c-.156-.014-.27-.152-.258-.307.014-.157.152-.27.308-.26.156.017.272.153.258.31-.014.156-.15.27-.308.257zm-.214 1.427c-.153-.03-.255-.175-.228-.33.026-.153.174-.257.328-.23.154.03.257.174.23.33-.027.153-.173.255-.33.23zm-.33 1.392c-.152-.04-.24-.196-.2-.347.04-.15.194-.24.347-.2.15.04.24.196.197.347-.04.15-.195.24-.347.2zm-.46 1.37c-.145-.054-.22-.216-.168-.363.054-.15.216-.224.365-.17.144.052.22.216.166.363-.053.146-.215.222-.364.17zm-.202 1.197c-.066.143-.234.202-.377.137-.14-.067-.203-.236-.136-.377.066-.14.234-.202.376-.136s.204.234.137.376zm-.678 1.302c-.078.136-.25.182-.387.103-.135-.078-.182-.25-.104-.386.08-.137.253-.184.39-.104.135.078.18.25.103.386zm-.78 1.23c-.09.13-.267.16-.395.07s-.16-.266-.07-.395c.09-.128.267-.16.395-.07s.16.267.07.395zm-.894 1.165c-.1.12-.28.136-.4.035-.12-.1-.135-.28-.035-.4s.28-.135.4-.034c.12.1.135.278.035.398zM18.423 34.5C9.63 34.5 2.5 27.37 2.5 18.577 2.5 9.78 9.63 2.65 18.422 2.65c8.797 0 15.925 7.13 15.925 15.927 0 8.794-7.128 15.923-15.925 15.923zm11.904-4.02c-.112.11-.29.11-.4 0-.11-.11-.11-.29 0-.4.11-.114.288-.114.4 0 .11.11.11.29 0 .4zm-1.082.99c-.12.102-.3.086-.4-.035-.1-.12-.085-.298.035-.398.12-.102.298-.085.4.035.1.12.085.3-.035.398zm-1.156.89c-.13.09-.306.06-.396-.07-.09-.128-.06-.304.07-.394.128-.09.305-.06.395.07.09.128.057.304-.07.395zm-1.24.79c-.135.077-.31.03-.387-.105-.08-.135-.032-.308.103-.386.137-.08.31-.034.388.1.078.137.032.31-.103.388zm-1.313.683c-.14.065-.31.004-.377-.138-.064-.143-.003-.31.14-.377.14-.066.31-.004.375.137.067.142.005.31-.137.378zm-1.356.56c-.146.054-.31-.02-.363-.17-.054-.145.023-.308.17-.362.147-.05.31.024.363.17.055.148-.02.31-.168.365zm-1.39.44c-.15.042-.306-.047-.345-.2-.04-.15.05-.305.2-.346.15-.04.306.05.347.2.04.15-.05.308-.2.346zm-1.432.32c-.156.027-.302-.077-.33-.23-.027-.154.076-.3.23-.33.155-.026.302.077.33.23.026.155-.077.302-.23.33zm-1.468.192c-.157.014-.294-.1-.307-.258-.014-.156.102-.292.258-.306.156-.013.294.103.307.26.013.154-.103.293-.258.306zm-1.467.063c-.157 0-.284-.126-.284-.283 0-.156.13-.284.284-.284.156 0 .284.13.283.286 0 .158-.127.285-.283.283zm-1.457-.06c-.155-.015-.27-.15-.257-.307.013-.155.15-.27.307-.256.155.014.272.15.257.307-.014.158-.15.27-.307.26zm-1.456-.19c-.154-.03-.257-.176-.23-.33.028-.155.175-.257.33-.23.153.027.257.173.23.328-.028.154-.175.258-.33.23zm-1.444-.322c-.15-.04-.24-.196-.2-.347.04-.154.195-.243.346-.204.152.042.242.197.202.347-.042.153-.197.243-.348.202zm-1.4-.442c-.148-.054-.224-.217-.17-.363.053-.146.216-.22.363-.17.147.056.223.22.17.365-.054.148-.217.223-.364.17zm-.972-.693c-.066.144-.235.205-.377.138-.143-.066-.204-.234-.137-.375.066-.142.234-.204.376-.137.14.066.202.235.136.376zm-1.292-.643c-.078.136-.252.183-.387.105-.135-.077-.182-.252-.104-.387s.253-.182.39-.103c.135.078.18.25.103.386zm-1.24-.76c-.09.127-.267.16-.394.07-.13-.09-.16-.268-.07-.396.09-.13.266-.16.394-.07.13.09.16.267.07.396zm-1.16-.86c-.102.12-.28.136-.4.034-.12-.1-.135-.277-.035-.397s.278-.137.4-.035c.118.1.134.28.033.398zm-1.075-.948c-.112.11-.292.11-.402 0-.11-.11-.11-.29 0-.4.11-.11.29-.11.4 0 .112.11.112.29 0 .4zm-.995-1.05c-.12.102-.298.086-.4-.033-.1-.12-.084-.3.036-.4.12-.1.3-.085.4.035.1.12.085.3-.035.4zM5.03 28.3c-.13.09-.305.06-.395-.07-.09-.127-.058-.304.07-.393.128-.09.305-.058.395.07.09.127.06.304-.07.393zm-.797-1.204c-.135.078-.308.032-.386-.103-.08-.136-.033-.308.103-.388.136-.078.31-.03.387.104.08.134.032.307-.104.385zm-.685-1.258c-.142.066-.31.004-.377-.137-.065-.14-.003-.31.14-.374.14-.066.31-.006.376.137.066.14.005.31-.137.376zm-.575-1.325c-.147.055-.31-.02-.364-.168-.055-.148.02-.31.17-.363.145-.055.31.022.36.168.055.148-.02.31-.17.363zm-.808-1.58c-.04-.15.05-.306.2-.347.152-.04.307.048.347.2.04.15-.05.306-.2.348-.15.04-.306-.05-.347-.202zM1.847 21.5c-.027-.156.076-.303.23-.33.154-.028.3.077.328.23.028.153-.075.3-.23.33-.154.025-.3-.077-.328-.23zm-.193-1.447c-.013-.156.102-.293.258-.306.156-.014.294.1.308.257.013.157-.102.293-.258.307-.156.015-.294-.1-.308-.257zm.22-1.75c.156 0 .284.127.284.283 0 .157-.128.284-.284.284-.157 0-.284-.126-.284-.283 0-.156.127-.283.284-.283zm.088-1.453c.157.015.27.153.258.308-.014.157-.15.27-.307.258-.156-.014-.27-.152-.258-.307.014-.158.15-.273.307-.26zm.214-1.427c.154.027.257.175.23.33-.028.152-.175.256-.33.23-.153-.03-.256-.176-.23-.33.028-.154.175-.257.33-.23zm.33-1.394c.153.04.243.194.202.346-.04.15-.196.24-.347.2-.15-.04-.24-.197-.2-.348.04-.152.196-.24.348-.2zm.46-1.37c.146.052.222.215.168.362-.053.147-.216.224-.363.17-.145-.054-.22-.217-.166-.364.052-.148.215-.223.362-.17zm.203-1.2c.064-.14.232-.202.374-.136.142.067.204.235.138.377-.067.14-.235.204-.377.137-.142-.066-.203-.234-.137-.376zm.676-1.302c.078-.136.25-.182.386-.104.137.078.183.25.104.387-.078.136-.25.183-.386.104-.135-.078-.18-.25-.103-.387zm.78-1.23c.09-.13.267-.16.395-.07.13.09.16.266.07.394-.09.127-.265.16-.394.07-.128-.09-.16-.267-.07-.395zm.895-1.166c.1-.12.28-.136.4-.034.12.1.135.277.035.397s-.28.137-.4.036c-.12-.1-.135-.28-.034-.4zm1-1.09c.11-.112.29-.112.4 0 .113.11.113.29 0 .4-.11.11-.29.11-.4 0-.11-.11-.11-.29 0-.4zm1.083-.993c.12-.1.3-.085.4.035.1.12.085.3-.035.4-.12.1-.3.084-.4-.036-.1-.12-.085-.3.034-.4zm1.155-.89c.127-.09.304-.06.394.07.09.13.058.305-.07.395-.128.09-.304.058-.395-.07-.09-.127-.06-.304.07-.394zM9.996 4c.135-.076.308-.03.387.105.078.136.032.31-.103.387-.136.08-.31.032-.388-.103-.08-.136-.032-.31.104-.388zm1.313-.68c.14-.067.31-.006.377.137.066.14.004.31-.137.376-.142.066-.31.005-.377-.138-.066-.142-.005-.31.138-.376zm1.356-.564c.147-.052.31.023.363.17.053.148-.023.31-.17.364-.147.053-.31-.02-.363-.168-.054-.147.022-.31.17-.365zm1.39-.44c.15-.04.306.05.347.2.04.152-.05.308-.2.348-.152.04-.307-.05-.348-.2-.04-.15.05-.308.2-.347zM15.49 2c.154-.027.3.076.328.23.028.154-.075.3-.23.328-.154.027-.3-.076-.327-.23-.026-.154.077-.302.23-.33zm1.468-.193c.155-.014.293.1.307.257.013.157-.102.293-.258.31-.156.012-.293-.104-.307-.26-.013-.155.1-.294.258-.307zm1.467-.063c.156 0 .284.126.284.282 0 .157-.13.284-.286.284-.156 0-.284-.127-.284-.284 0-.156.13-.282.285-.282zm1.455.06c.156.014.272.15.258.307-.013.158-.15.273-.307.26-.154-.014-.27-.15-.256-.307.014-.157.152-.27.307-.258zm1.456.19c.155.028.257.176.23.33-.026.154-.174.257-.328.23-.154-.028-.257-.174-.23-.328.027-.154.175-.258.328-.23zm1.446.323c.15.04.24.196.2.346-.04.15-.196.24-.348.202-.15-.042-.24-.197-.2-.348.04-.152.196-.242.348-.2zm1.4.44c.147.055.223.218.17.365-.055.147-.217.22-.364.17-.147-.055-.224-.217-.17-.364.054-.148.217-.223.364-.17zm.97.694c.067-.14.236-.2.378-.135.14.066.203.234.137.376-.067.144-.235.205-.377.138-.142-.065-.204-.234-.137-.376zm1.293.646c.078-.135.25-.182.387-.104.135.08.182.254.104.39-.08.135-.252.18-.387.102-.138-.078-.184-.25-.106-.387zm1.24.76c.09-.126.267-.158.395-.068.13.09.16.267.07.395-.09.13-.267.16-.395.07-.13-.09-.16-.267-.07-.396zm1.16.86c.1-.118.28-.134.4-.034.12.102.135.28.035.4s-.28.136-.4.035c-.12-.1-.135-.28-.035-.4zm1.075.95c.112-.11.29-.112.4 0 .112.11.112.29 0 .4-.11.11-.29.11-.4 0-.11-.11-.11-.29 0-.4zm.995 1.047c.12-.1.297-.085.398.035.102.12.086.298-.035.4-.12.1-.3.084-.4-.036-.1-.12-.085-.298.037-.398zm.904 1.14c.126-.09.303-.06.392.068.09.13.06.307-.07.396-.127.09-.305.06-.393-.068-.09-.13-.06-.305.07-.396zm.795 1.205c.135-.08.308-.033.386.104.08.135.034.308-.102.386-.138.08-.31.033-.39-.103-.077-.136-.03-.308.106-.386zm.685 1.258c.142-.067.312-.005.377.136.067.143.005.312-.136.378-.14.067-.31.005-.374-.137-.068-.14-.006-.31.136-.375zm.576 1.324c.148-.055.31.02.363.17.052.145-.024.308-.17.36-.15.055-.31-.02-.364-.168-.054-.148.022-.31.17-.363zm.808 1.58c.04.15-.05.306-.2.347-.15.04-.308-.05-.348-.2-.04-.15.05-.307.2-.347.153-.04.308.048.348.2zm.318 1.433c.027.154-.076.302-.23.33-.154.026-.302-.077-.328-.23-.027-.155.075-.302.23-.33.154-.027.3.076.328.23zm.256 2.912c0 .156-.127.284-.283.284-.156 0-.283-.13-.283-.286 0-.156.127-.283.283-.283.156 0 .283.128.283.284zm-.063-1.466c.013.153-.103.29-.258.304-.155.014-.294-.102-.308-.258-.015-.155.1-.293.256-.306.156-.013.293.102.308.26zM18.423 1.4C8.94 1.4 1.25 9.09 1.25 18.578c0 9.484 7.69 17.173 17.173 17.173 9.487 0 17.176-7.69 17.176-17.172C35.6 9.09 27.91 1.4 18.42 1.4z"/>
  <path d="M26.878 24.76h-.214c-.46.002-.764-.108-.91-.33-.144-.22-.218-.615-.222-1.177v-.012l-.022-9.397v-.004c0-.556.07-.95.21-1.177.14-.23.445-.345.914-.347h.187v-.99h-4.575l-3.85 10.208-3.865-10.208-4.512.01.002 1.02c.47 0 .784.104.94.314.154.21.23.63.233 1.254l.02 8.58c.002.587-.02 1.014-.066 1.28-.045.268-.168.504-.372.71-.204.204-.448.306-.725.307l.002 1.014h4.007l-.004-1.02c-.417 0-.77-.092-1.06-.282-.293-.187-.478-.42-.558-.692-.08-.273-.122-.695-.124-1.272l-.02-8.47 4.656 11.73.717-.002 4.58-11.907.023 9.35c0 .557-.093.95-.278 1.18-.185.23-.588.346-1.206.346h-.25l.003 1.023h6.337l-.002-1.038zM44.077 16.116c.023.298.152.748.418.748h.313c.048 0 .056.024.056.056v.217c0 .032-.008.056-.072.056-.09 0-.305-.024-.893-.024-.685 0-.967.022-1.038.022-.066 0-.073-.008-.073-.072v-.208c0-.024.006-.048.047-.048h.33c.257 0 .354-.37.386-.628.072-.57.144-2.468.144-2.612l-.008-1.23c0-.37-.08-.61-.44-.61h-.268c-.05 0-.057-.025-.057-.058v-.224c0-.024.008-.048.057-.048.08 0 .298.024 1.246.024.377 0 .626-.024.722-.024.08 0 .145.008.193.136.515 1.368 1.094 2.7 1.543 3.907.088-.152.7-1.647.748-1.76.032-.08.836-2.002.876-2.162.024-.09.13-.097.37-.097 1.254 0 1.528-.024 1.615-.024.04 0 .048.024.048.072v.185c0 .05-.007.074-.063.074h-.354c-.185 0-.21.145-.21.313 0 .12.01 2.1.017 2.267 0 .16.024 1.922.024 2.066 0 .305.07.434.184.434h.388c.048 0 .056.024.056.056v.2c0 .05-.008.073-.072.073-.097 0-.24-.024-1.19-.024-.82 0-1.133.022-1.24.022-.053 0-.062-.024-.062-.072v-.2c0-.04.01-.056.063-.056h.45c.138 0 .21-.05.227-.273.008-.095.03-1.56.03-2.122v-2.45h-.047c-.08.136-.98 2.323-1.125 2.652-.168.37-.884 2.153-.924 2.226-.04.064-.097.185-.193.185-.055 0-.104-.055-.143-.143-.026-.056-1.087-2.548-1.144-2.693-.144-.37-.884-2.17-.948-2.267-.032.112-.05 2.147-.05 2.242 0 .096.01 1.19.06 1.897zm11.886-1.656c0-1.76-1.157-2.725-1.832-2.725-.16 0-.56-.04-1.05.434-.476.45-.717 1.292-.717 1.952 0 2.058 1.18 2.79 1.85 2.79 1.486 0 1.75-1.794 1.75-2.453zm-3.706 2.307c-.57-.346-1.18-1.214-1.18-2.387 0-.49.128-1.254.747-2.002.707-.86 1.616-1.02 2.34-1.02.667 0 1.285.104 1.96.634.61.483 1.1 1.294 1.1 2.404 0 .587-.183 1.197-.6 1.76-.524.65-1.207 1.134-2.477 1.134-.555 0-1.254-.13-1.89-.523zm7.5-2.387c.152.008.25.008.32.008 1.06 0 1.31-1.013 1.31-1.39 0-.37-.13-.725-.304-.902-.29-.256-.652-.353-.893-.353-.137 0-.24.016-.306.072-.048.033-.07.12-.088.217l-.04 2.348zm-1.127-.868c0-.595 0-1.11-.007-1.326-.008-.266-.113-.403-.225-.403h-.322c-.04 0-.048-.024-.048-.057v-.216c0-.04.008-.056.048-.056.073 0 .322.024 1.198.024.45 0 1.157-.024 1.486-.024.628 0 1.094.224 1.424.53.29.266.458.58.458.876 0 1.02-.764 1.48-1.47 1.544v.056c.247.08.377.233.53.427.104.127.546.844.61.94.05.072.482.683.643.868.097.104.402.17.588.17.055 0 .064.03.064.062v.194c0 .05-.01.074-.064.074-.065 0-.274-.024-.893-.024-.233 0-.53.015-.764.023-.24-.184-.74-1.117-.876-1.39-.273-.547-.602-1.142-.99-1.142h-.272v.41c0 .476.025 1.377.04 1.48.017.17.08.315.202.315h.33c.056 0 .063.024.063.063v.194c0 .057-.007.073-.13.073-.006 0-.208-.024-1.052-.024-.85 0-1.034.024-1.123.024-.064 0-.064-.024-.064-.08v-.186c0-.04 0-.063.04-.063h.24c.18 0 .323-.057.323-.257.015-.796.015-1.553.015-2.316v-.778zm6.954.868c.152.008.25.008.32.008 1.06 0 1.31-1.013 1.31-1.39 0-.37-.128-.725-.305-.902-.29-.256-.653-.353-.894-.353-.137 0-.24.016-.306.072-.046.033-.07.12-.087.217l-.04 2.348zm-1.126-.868c0-.595 0-1.11-.008-1.326-.008-.266-.113-.403-.226-.403h-.32c-.042 0-.05-.024-.05-.057v-.216c0-.04.008-.056.05-.056.07 0 .32.024 1.197.024.45 0 1.16-.024 1.488-.024.628 0 1.094.224 1.423.53.29.266.46.58.46.876 0 1.02-.764 1.48-1.47 1.544v.056c.25.08.377.233.53.427.104.127.546.844.61.94.05.072.483.683.644.868.096.104.4.17.586.17.055 0 .063.03.063.062v.194c0 .05-.008.074-.064.074-.066 0-.275-.024-.894-.024-.233 0-.53.015-.764.023-.24-.184-.74-1.117-.876-1.39-.274-.547-.602-1.142-.99-1.142h-.272v.41c0 .476.024 1.377.04 1.48.016.17.08.315.2.315h.33c.058 0 .065.024.065.063v.194c0 .057-.008.073-.13.073-.01 0-.21-.024-1.052-.024-.854 0-1.038.024-1.127.024-.064 0-.064-.024-.064-.08v-.186c0-.04 0-.063.04-.063h.242c.177 0 .322-.057.322-.257.016-.796.016-1.553.016-2.316v-.778zm5.9.288c0-.192-.026-1.64-.034-1.743-.015-.193-.096-.274-.265-.274h-.388c-.04 0-.063-.015-.063-.048v-.233c0-.032.02-.048.055-.048.095 0 .506.024 1.294.024.82 0 1.076-.024 1.19-.024.04 0 .055.024.055.072v.2c0 .042-.025.057-.066.057h-.233c-.2 0-.322.065-.322.21 0 .08-.023 1.857-.023 1.953v.62l.023 2.008c0 .25.12.29.274.29h.33c.04 0 .063.016.063.056v.225c0 .032-.024.048-.073.048-.095 0-.417-.024-1.18-.024-.844 0-1.19.022-1.28.022-.04 0-.062-.016-.062-.064v-.218c0-.032.023-.048.063-.048h.236c.16 0 .33-.024.362-.218.015-.12.04-1.856.04-2.283v-.56zm3.11 1.592c.032 0 .055.008.055.065.016.25.13.595.32.908.235.37.63.547 1.015.547.386 0 1.005-.257 1.005-.892 0-.667-.13-.86-1.174-1.255-.243-.088-.758-.345-1.168-.7-.28-.248-.4-.675-.4-1.14 0-.49.12-.82.6-1.182.362-.273.668-.385 1.16-.385.585 0 .9.096 1.068.16.08.03.137.016.186-.04l.104-.105c.033-.032.073-.048.12-.048.057 0 .073.088.082.137l.128 1.374c0 .032-.016.04-.04.05l-.177.054c-.04.018-.08 0-.104-.055-.09-.234-.228-.547-.5-.836-.2-.228-.443-.34-.805-.34-.603 0-.853.522-.853.73 0 .3.008.54.21.74.21.218.667.41 1.06.524.388.112.7.313 1.03.61.314.28.442.635.442 1.198 0 .98-.7 1.777-1.76 1.777-.724 0-1.102-.12-1.44-.347-.096-.064-.143-.088-.184-.088-.048 0-.08.056-.127.136-.05.09-.088.097-.146.097-.088 0-.12-.04-.112-.128l.13-1.53c.008-.054.03-.054.063-.054l.21.015z"/>
  <path fill-rule="nonzero" d="M43.173 21.29h.308v4.446h-.306zm4.93 1.12c-.414 0-.81.26-1.02.535-.1-.275-.36-.535-.83-.535-.4 0-.773.266-.96.477v-.4h-.297v3.25h.295v-2.493c.213-.314.617-.558.93-.558.42 0 .63.238.63.732v2.318h.293v-2.5c.193-.304.605-.55.927-.55.42 0 .626.238.626.732v2.318h.295v-2.318c0-.67-.297-1.008-.887-1.008zm5.49 0c-.41 0-.81.26-1.016.535-.102-.275-.36-.535-.833-.535-.398 0-.77.266-.96.477v-.4h-.295v3.25h.294v-2.493c.21-.314.615-.558.925-.558.422 0 .627.238.627.732v2.318h.296v-2.5c.194-.304.606-.55.927-.55.423 0 .63.238.63.732v2.318h.294v-2.318c0-.67-.3-1.008-.89-1.008zm3.737 3.128c-.79 0-1.203-.72-1.203-1.43 0-.707.413-1.422 1.202-1.422.822 0 1.2.736 1.2 1.422 0 .687-.378 1.43-1.2 1.43zm0-3.128c-.88 0-1.518.715-1.518 1.698 0 .988.638 1.705 1.517 1.705.88 0 1.514-.717 1.514-1.705 0-1-.624-1.698-1.516-1.698zm4.223 3.128c-.5 0-.91-.304-1.084-.59v-1.66c.182-.3.61-.602 1.082-.602.694 0 1.14.56 1.14 1.428 0 .866-.446 1.424-1.14 1.424zm0-3.128c-.414 0-.808.192-1.084.52v-1.64h-.297v4.446h.295v-.428c.263.31.673.505 1.083.505.87 0 1.456-.683 1.456-1.7 0-1.018-.586-1.703-1.455-1.703zm2.934-.84c-.13 0-.24.108-.24.238s.11.24.24.24.238-.108.238-.24-.107-.24-.238-.24zm-.15.918h.296v3.248h-.295zm1.798-1.198h.295v4.446h-.295zm1.797 1.198h.295v3.248h-.295zm.148-.918c-.128 0-.238.108-.238.238s.11.24.24.24.237-.108.237-.24-.11-.24-.24-.24zm3 1.116c.764 0 1.186.64 1.208 1.263h-2.405c.04-.624.465-1.265 1.198-1.265zm.008-.276c-.857 0-1.53.745-1.53 1.698 0 .988.67 1.705 1.595 1.705.502 0 .887-.168 1.248-.542l.033-.03-.185-.2-.037.04c-.29.31-.636.46-1.056.46-.713 0-1.23-.54-1.27-1.316h2.713v-.115c0-.847-.467-1.7-1.508-1.7zm4.222 0c-.403 0-.83.235-1.09.493v-.415h-.294v3.248h.295v-2.49c.203-.275.64-.56 1.067-.56.535 0 .763.24.763.804v2.246h.294V23.49c0-.728-.338-1.08-1.033-1.08z"/>
</svg>
